HIERARCHY
ROOT Hips
{
  OFFSET 4.83823 102.271 -5.36879
  CHANNELS 6 Xposition Yposition Zposition Zrotation Xrotation Yrotation
  JOINT RightUpLeg
  {
    OFFSET -8.9458 -8.66707 0.101652
    CHANNELS 3 Zrotation Xrotation Yrotation
    JOINT RightLeg
    {
      OFFSET 0 -44.4227 1.3727
      CHANNELS 3 Zrotation Xrotation Yrotation
      JOINT RightFoot
      {
        OFFSET 0.253549 -42.0924 -1.46059
        CHANNELS 3 Zrotation Xrotation Yrotation
        JOINT RightToes
        {
          OFFSET 0.04 -4.41509 8.4991
          CHANNELS 3 Zrotation Xrotation Yrotation
          End Site
          {
            OFFSET -0.08 -0.137448 9.77979
          }
        }
      }
    }
  }
  JOINT Spine
  {
    OFFSET 0 11.8905 0
    CHANNELS 3 Zrotation Xrotation Yrotation
    JOINT Spine1
    {
      OFFSET 0 25.6574 0.127663
      CHANNELS 3 Zrotation Xrotation Yrotation
      JOINT HEad
      {
        OFFSET 0 8.73416 0.011341
        CHANNELS 3 Zrotation Xrotation Yrotation
        End Site
        {
          OFFSET -0.29 12.7742 2.51395
        }
      }
      JOINT LeftShoulder1
      {
        OFFSET 8.99 -0.362252 -0.22
        CHANNELS 3 Zrotation Xrotation Yrotation
        JOINT LeftArm
        {
          OFFSET 10.2827 -0.00337999 0.322123
          CHANNELS 3 Zrotation Xrotation Yrotation
          JOINT LeftForeArm
          {
            OFFSET 26.2597 0.099144 -1.42434
            CHANNELS 3 Zrotation Xrotation Yrotation
            JOINT LeftHand
            {
              OFFSET 22.0902 0.085362 1.02216
              CHANNELS 3 Zrotation Xrotation Yrotation
              End Site
              {
                OFFSET 13.419 -0.6 1.50291
              }
            }
          }
        }
      }
      JOINT RightShoulder
      {
        OFFSET -8.99 -0.362252 -0.22
        CHANNELS 3 Zrotation Xrotation Yrotation
        JOINT RightArm
        {
          OFFSET -10.2827 -0.00338 0.322123
          CHANNELS 3 Zrotation Xrotation Yrotation
          JOINT RightForeArm
          {
            OFFSET -26.364 0.099144 -1.42434
            CHANNELS 3 Zrotation Xrotation Yrotation
            JOINT RightHand
            {
              OFFSET -22.0324 0.085362 1.02216
              CHANNELS 3 Zrotation Xrotation Yrotation
              End Site
              {
                OFFSET -13.3284 -0.6 1.50291
              }
            }
          }
        }
      }
    }
  }
  JOINT LeftUpLeg
  {
    OFFSET 8.9458 -8.66707 0.101652
    CHANNELS 3 Zrotation Xrotation Yrotation
    JOINT LeftLeg
    {
      OFFSET 0 -44.4227 1.3727
      CHANNELS 3 Zrotation Xrotation Yrotation
      JOINT LeftFoot
      {
        OFFSET -0.253549 -42.0924 -1.46059
        CHANNELS 3 Zrotation Xrotation Yrotation
        JOINT LeftToes
        {
          OFFSET -0.04 -4.41509 8.4991
          CHANNELS 3 Zrotation Xrotation Yrotation
          End Site
          {
            OFFSET 0.08 -0.047448 9.77979
          }
        }
      }
    }
  }
}
MOTION
Frames:	10
Frame Time:	0.0333333
6.35027 125.432 7.27773 0.871834 1.687 -2.06549 0.13113 -2.06437 -1.68381 -3.51594 21.5965 14.3559 7.29465 11.021 -30.9487 -4.77115e-015 0 0.662642 1.31691 2.32039 3.30871 -0.0712468 -4.64111 1.77982 0.428154 -14.8656 5.68003 -3.32583e-008 5.49902e-008 -1.03422 -25.8009 15.4436 0.935803 30.9781 -43.0998 -101.233 3.24363 -12.8528 1.72731 -6.70686e-007 1.03499e-007 3.81437 9.64284 7.04492 10.0531 -27.9486 -22.0736 59.0861 0.656735 7.42298 2.58092 -1.49778 2.19987 9.04916 1.66334 12.4444 -3.33296 -3.8051 12.6513 26.0985 1.59028e-015 0 -1.47469e-008 
6.3487 127.226 7.09905 1.06053 0.598958 -1.62839 0.156896 -1.68385 -2.82603 -3.87483 23.5111 14.4839 8.34501 14.2786 -27.6407 4.66079e-015 9.54166e-015 0.662642 0.715339 4.88408 2.87285 0.05178 -5.45575 1.66146 0.899279 -16.6659 5.60382 -7.96703e-007 3.29819e-008 -1.03422 -27.7581 12.3202 4.49203 31.2881 -41.8822 -98.958 2.91629 -11.6677 1.48542 -1.04539e-006 4.33257e-008 3.81437 11.6805 6.49594 7.33353 -27.6592 -21.4523 58.0644 0.686741 7.79827 2.62983 -1.7397 2.67671 10.0437 1.88443 13.9829 -3.35982 -4.63821 17.4256 22.7399 -3.18055e-015 -9.54166e-015 -1.47469e-008 
6.27937 128.997 6.8396 0.917219 -0.456339 -0.93923 0.780899 -1.38027 -3.23316 -4.22779 25.3324 14.6299 8.6774 15.9758 -25.8174 -3.25434e-015 6.36111e-015 0.662642 0.473571 7.59657 2.29788 0.230931 -6.20739 1.50707 1.06211 -18.2109 5.56731 -1.43014e-007 -4.41525e-008 -1.03422 -29.5585 9.04289 7.34327 31.5931 -40.2587 -96.0234 2.56766 -10.3785 1.2315 -1.04955e-007 -2.17296e-007 3.81437 13.6991 5.42696 4.70379 -27.2868 -20.6919 56.8041 0.685746 7.78502 2.62804 -1.48872 2.98477 10.691 2.09894 15.4546 -3.41498 -3.84728 19.9906 18.0963 1.59028e-015 0 -1.47469e-008 
6.17485 130.742 6.6443 0.797919 -1.16179 -0.216044 1.43113 -1.43399 -3.27314 -4.52622 26.8258 14.771 9.20785 16.6647 -26.1624 3.21755e-015 -3.18055e-015 0.662642 0.208576 9.66409 1.81826 0.470016 -6.8024 1.38138 0.963906 -19.0498 5.48103 3.72292e-007 8.7473e-008 -1.03422 -31.2346 6.05475 9.62019 31.8113 -38.2636 -92.5463 2.39028 -9.71106 1.10389 2.14227e-007 1.10215e-007 3.81437 15.7406 4.19913 2.20476 -26.7692 -19.6977 55.1378 0.65341 7.37894 2.5749 -1.25267 2.91457 11.0234 2.27974 16.6753 -3.45892 -4.06631 22.4677 17.1026 1.59028e-015 -1.27222e-014 -1.47469e-008 
6.10961 132.443 6.62556 1.08087 -1.57175 0.447368 1.53216 -1.62344 -3.35265 -4.74607 27.8995 14.8804 9.85619 17.267 -26.897 -1.5536e-015 -3.18055e-015 0.662642 -0.47052 10.8651 1.50504 0.714822 -7.26995 1.29163 0.787514 -18.8942 5.34741 2.1383e-007 -4.12049e-008 -1.03422 -32.8037 3.71909 11.4405 31.8706 -36.0104 -88.7519 2.50236 -10.1329 1.18459 3.20912e-008 -3.6932e-007 3.81437 17.8209 3.37414 -0.119622 -26.112 -18.5226 53.1366 0.567294 6.32025 2.43572 -1.57329 2.77647 10.7796 2.37933 17.3418 -3.48375 -4.489 23.8299 17.3821 1.59028e-015 3.18055e-015 -1.47469e-008 
6.11009 134.101 6.80068 1.49445 -1.79128 1.08933 1.37538 -1.71021 -3.39869 -4.87724 28.5272 14.9437 10.0732 17.7698 -26.723 -1.66396e-015 6.36111e-015 0.662642 -1.13697 11.3129 1.21363 0.868057 -7.43285 1.20026 0.830751 -18.06 5.5467 1.90246e-007 -9.8319e-008 -1.03422 -34.2593 1.78703 12.7417 31.7224 -33.48 -84.6109 2.92261 -11.6899 1.49041 -1.97785e-007 -7.0405e-007 3.81437 19.787 2.84835 -2.11007 -25.3075 -17.1974 50.8309 0.45235 4.95218 2.25407 -2.16071 2.80346 9.95526 2.38118 17.3575 -3.48109 -4.65972 24.1761 17.6007 -4.77083e-015 0 -1.47469e-008 
6.14305 135.716 7.12483 1.72429 -1.61659 1.70428 1.3614 -1.95193 -3.2155 -4.90617 28.6623 14.9523 9.96655 18.1766 -25.9435 1.51681e-015 6.36111e-015 0.662642 -1.42458 10.9187 0.986707 0.849564 -7.17425 1.12581 0.800093 -16.9765 5.81702 -2.58517e-007 -1.03913e-007 -1.03422 -35.5585 0.15925 13.3928 31.3278 -30.7601 -80.2493 3.57871 -14.0385 1.97856 -1.74481e-007 -4.93974e-007 3.81437 21.5972 2.38314 -3.92121 -24.3932 -15.8161 48.3621 0.330304 3.55181 2.06583 -2.6035 2.64081 8.71883 2.31021 16.8883 -3.46072 -4.25577 23.5355 16.9761 -1.59028e-015 -3.18055e-015 -1.47469e-008 
6.17238 137.277 7.51088 1.85495 -1.04608 2.26368 1.43818 -2.49141 -2.6341 -4.84608 28.3742 14.9199 9.78721 18.0591 -25.6881 6.84835e-016 9.54166e-015 0.662642 -1.58051 9.90559 0.801537 0.787957 -6.76976 1.06609 0.735371 -15.7695 6.03504 -1.67475e-007 3.48796e-007 -1.03422 -36.7218 -0.916318 13.6719 30.7306 -28.1473 -76.0991 4.5079 -17.1942 2.68991 -1.27086e-007 1.35668e-007 3.81437 23.4493 2.11067 -5.67721 -23.4907 -14.562 46.0519 0.233737 2.47829 1.91984 -2.93428 2.12256 7.42539 2.20436 16.1822 -3.44179 -3.42432 21.4016 16.0013 1.59028e-015 -3.18055e-015 -1.47469e-008 
6.18797 138.773 7.89479 1.67848 -0.316945 2.70514 1.85363 -3.14017 -1.60473 -4.72254 27.779 14.8626 9.48233 17.1903 -26.1376 1.44324e-015 1.27222e-014 0.662642 -1.34891 8.71351 0.684 0.672711 -6.39305 1.03323 0.872666 -14.8436 6.56071 -2.49246e-007 -4.77418e-007 -1.03422 -37.9319 -1.50433 13.7222 30.0146 -25.7974 -72.3619 5.60897 -20.6832 3.55928 -3.91161e-007 -5.10077e-007 3.81437 25.3707 1.57834 -7.20813 -22.5551 -13.3613 43.7672 0.226612 2.39802 1.90842 -2.89764 1.41487 6.41072 2.09477 15.4423 -3.42033 -3.20905 19.3739 16.6082 3.18055e-015 -6.36111e-015 -1.47469e-008 
6.20618 140.198 8.25802 1.45561 0.369481 3.03556 2.27493 -3.75597 -0.371297 -4.57349 27.0522 14.7947 9.01287 16.1039 -26.5338 9.05549e-016 -9.54166e-015 0.662642 -1.02173 7.62275 0.671192 0.620531 -5.9738 1.03425 1.0179 -14.4846 7.17789 1.30799e-007 -5.18014e-008 -1.03422 -39.3332 -1.79567 13.5037 29.2117 -23.6545 -68.9223 6.59661 -23.5924 4.36019 1.40374e-008 -1.94204e-007 3.81437 27.1533 0.458114 -8.37228 -21.5462 -12.1639 41.4054 0.276531 2.94581 1.98316 -2.77987 0.710181 5.74493 2.00092 14.8023 -3.39963 -3.28271 17.943 17.856 1.59028e-015 -6.36111e-015 -1.47469e-008 
